<svg xmlns="http://www.w3.org/2000/svg" width="256" height="256" viewBox="0 0 256 256"><switch><g><path fill="#2B79C2" d="M6014.006 3088.267h115.998v8h-115.998v-8zm34.247-62.144a5.98 5.98 0 0 1 9-7.876l16.271 18.547 45.498-40.653a5.977 5.977 0 0 1 7.969 8.907l-49.842 44.535c-2.553 2.361-6.387 2.202-8.644-.374l-20.252-23.086zm23.761-27.744c10.475-10.643 25.578-12.281 37.713-4.441a300.95 300.95 0 0 1-6.157 5.619c-10.026-5.205-21.213-2.217-28.413 7.275-1.557 2.053-4.669 2.139-6.276.035-15.156-19.851-40.915-6.9-40.915 13.002 0 7.413 5.26 15.944 12.542 23.895 9.404 10.267 22.021 19.332 31.499 24.08 9.477-4.748 22.093-13.813 31.498-24.08 5.055-5.52 9.135-11.318 11.158-16.83a363.671 363.671 0 0 0 9.286-8.084c.739 23.19-32.893 48.947-50.288 57.045a3.904 3.904 0 0 1-3.311 0c-17.119-7.961-50.305-33.479-50.305-56.025 0-26.171 31.888-42.02 51.969-21.491zm-58.008 110.892h115.998v8h-115.998v-8z"/><path fill="#3B4652" d="M5992.949 2935.275h26.056v12h-26.056a7.98 7.98 0 0 0-5.646 2.354 7.974 7.974 0 0 0-2.354 5.646v187.998c0 4.387 3.613 8 7.999 8h158.111c4.384 0 8-3.615 8-8v-187.998a7.975 7.975 0 0 0-2.355-5.645 7.973 7.973 0 0 0-5.645-2.355h-26.055v-12h26.055c5.506 0 10.507 2.249 14.129 5.871 3.621 3.622 5.871 8.625 5.871 14.129v187.998c0 11.008-8.993 20-20 20h-158.111c-11.009 0-20-8.99-20-20v-187.998c0-5.506 2.249-10.508 5.871-14.129 3.623-3.623 8.624-5.871 14.13-5.871zm79.057-27.988c5.797 0 11.047.352 14.848 4.151a20.938 20.938 0 0 1 6.151 14.849h24.001v30h-90v-30h23.999a20.938 20.938 0 0 1 6.151-14.849c3.801-3.799 9.051-4.151 14.85-4.151zm6.363 12.636a8.972 8.972 0 0 0-6.363-2.636c-2.486 0-4.737 1.008-6.365 2.636s-2.635 3.878-2.635 6.364 1.007 4.736 2.635 6.364a8.973 8.973 0 0 0 5.901 2.624h.926a8.97 8.97 0 0 0 5.901-2.624c1.629-1.628 2.636-3.878 2.636-6.364s-1.007-4.736-2.636-6.364z"/><g fill="#3678A3"><path d="M176.01 232.971c2.914-6.304 5.117-12.098 6.669-17.455l-40.888 7.916v-8.419l42.928-8.312c.573-3.385.855-6.587.859-9.625l-43.787-.704v-8.249l43.064.692c-.85-4.661-2.438-8.927-4.657-12.925l-38.407-8.731v-8.464l31.023 7.051c-8.249-9.111-19.974-17.218-33.61-26.301l1.4-.728c5.09-2.647 10.186-5.293 15.244-8.005 40.045 27.153 62.979 49.021 35.17 109.18l-15.008-6.921zM83.676 28.901l41.555-2.651v8.279l-43.912 2.803c-1.022 4.355-1.636 8.382-1.864 12.135l45.776.247v8.249l-45.622-.247c.397 3.742 1.252 7.2 2.533 10.447l43.088 7.284v8.381l-37.99-6.422c6.426 9.03 16.656 17.44 29.811 26.907-5.37 2.791-10.839 5.624-16.299 8.544-14.539-10.969-25.426-21.254-31.81-33.761-8.744-17.126-8.57-37.075 2.969-66.175l15.331 6.081a155.865 155.865 0 0 0-3.566 9.899z"/><path d="M76.271 256c-27.466-40.365-36.1-64.738-26.888-85.689 8.933-20.311 33.979-34.463 74.582-55.595 10.123-5.264 20.356-10.467 30.231-16.182 4.391-2.541 8.516-5.098 12.315-7.729l-24.72-4.179v-8.38l33.629 5.685c8.407-7.349 14.174-15.539 16.151-25.612l-49.78-.27v-8.248l50.536.273c-.037-5.877-1.22-12.357-3.712-19.592l-46.824 2.988v-8.281l43.63-2.783c-1.967-4.439-4.372-9.135-7.261-14.128L192.456 0c35.784 61.83 13.047 87.93-29.98 112.832-10.106 5.848-20.519 11.182-30.877 16.569-13.596 7.076-25.283 13.27-34.976 19.024l28.607 6.504v8.466l-38.517-8.757c-11.334 7.582-18.809 14.639-22.193 22.336-1.335 3.035-2.05 6.297-2.137 9.871l62.847 1.01v8.25l-62.045-.998c1.786 8.76 6.531 19.255 14.355 32.345l47.69-9.233v8.418l-43.042 8.334a463.412 463.412 0 0 0 7.732 11.715L76.271 256z"/></g></g></switch></svg>
