
<svg xmlns="http://www.w3.org/2000/svg" version="1.0" width="335.000000pt" height="156.000000pt" viewBox="0 0 335.000000 156.000000" preserveAspectRatio="xMidYMid meet">
<g transform="translate(0.000000,156.000000) scale(0.100000,-0.100000)" stroke="none" style="fill:#009688">
<path d="M68 1293 c-24 -26 -23 -68 2 -93 14 -14 33 -20 68 -20 26 0 64 -3 85 -6 l37 -7 0 -427 0 -427 -37 -7 c-21 -3 -59 -6 -86 -6 -78 0 -115 -62 -66 -111 20 -20 29 -21 113 -16 179 11 342 73 491 184 102 76 187 166 362 384 277 344 418 440 648 438 147 -1 286 -56 397 -158 l53 -48 -40 -49 c-21 -27 -60 -72 -86 -99 l-46 -51 -12 46 c-30 115 -144 200 -267 200 -120 0 -219 -52 -350 -184 -96 -97 -252 -291 -261 -324 -8 -32 15 -61 118 -150 231 -199 524 -247 779 -126 146 69 242 159 453 421 139 174 272 323 288 323 5 0 9 -103 9 -237 l-1 -238 -88 93 -88 92 -43 -51 -43 -51 54 -55 c148 -152 227 -215 344 -273 104 -51 208 -79 321 -87 84 -5 93 -4 113 16 46 46 12 111 -58 111 -21 0 -59 3 -84 6 l-47 7 -2 427 -3 428 35 6 c19 3 59 6 88 6 81 0 116 51 75 109 -16 23 -19 24 -117 18 -160 -9 -308 -57 -439 -144 -109 -72 -235 -201 -407 -413 -194 -240 -291 -334 -399 -388 -135 -68 -298 -79 -440 -31 -68 23 -188 99 -235 147 -33 35 -38 23 69 155 l69 86 13 -47 c7 -26 12 -50 13 -53 1 -22 102 -115 145 -135 96 -45 223 -25 338 53 66 44 204 188 300 312 102 132 103 138 29 214 -111 114 -267 204 -402 233 -110 23 -261 15 -365 -20 -174 -59 -305 -170 -525 -446 -145 -182 -241 -292 -275 -314 l-25 -16 0 237 1 238 88 -92 88 -92 42 51 41 51 -57 61 c-229 240 -412 338 -663 353 -86 5 -97 4 -112 -14z m387 -191 l50 -27 3 -337 2 -338 -50 -25 c-27 -14 -52 -25 -54 -25 -3 0 -7 176 -8 390 -2 215 -1 390 2 390 3 0 28 -13 55 -28z m2505 -363 l0 -390 -52 28 -53 28 0 340 0 340 45 22 c25 12 48 22 53 22 4 1 7 -175 7 -390z m-1202 131 c130 -79 74 -280 -78 -280 -85 0 -150 65 -150 150 0 85 65 150 150 150 27 0 58 -8 78 -20z"/>
</g>
</svg>
