<svg xmlns="http://www.w3.org/2000/svg" version="1" width="446.667" height="208" viewBox="0 0 335.000000 156.000000"><path d="M6.8 26.7c-2.4 2.6-2.3 6.8.2 9.3 1.4 1.4 3.3 2 6.8 2 2.6 0 6.4.3 8.5.6l3.7.7v85.4l-3.7.7c-2.1.3-5.9.6-8.6.6-7.8 0-11.5 6.2-6.6 11.1 2 2 2.9 2.1 11.3 1.6 17.9-1.1 34.2-7.3 49.1-18.4 10.2-7.6 18.7-16.6 36.2-38.4 27.7-34.4 41.8-44 64.8-43.8 14.7.1 28.6 5.6 39.7 15.8l5.3 4.8-4 4.9c-2.1 2.7-6 7.2-8.6 9.9l-4.6 5.1-1.2-4.6c-3-11.5-14.4-20-26.7-20-12 0-21.9 5.2-35 18.4-9.6 9.7-25.2 29.1-26.1 32.4-.8 3.2 1.5 6.1 11.8 15 23.1 19.9 52.4 24.7 77.9 12.6 14.6-6.9 24.2-15.9 45.3-42.1C256.2 72.9 269.5 58 271.1 58c.5 0 .9 10.3.9 23.7l-.1 23.8-8.8-9.3-8.8-9.2-4.3 5.1-4.3 5.1 5.4 5.5c14.8 15.2 22.7 21.5 34.4 27.3 10.4 5.1 20.8 7.9 32.1 8.7 8.4.5 9.3.4 11.3-1.6 4.6-4.6 1.2-11.1-5.8-11.1-2.1 0-5.9-.3-8.4-.6l-4.7-.7-.2-42.7-.3-42.8 3.5-.6c1.9-.3 5.9-.6 8.8-.6 8.1 0 11.6-5.1 7.5-10.9-1.6-2.3-1.9-2.4-11.7-1.8-16 .9-30.8 5.7-43.9 14.4-10.9 7.2-23.5 20.1-40.7 41.3-19.4 24-29.1 33.4-39.9 38.8-13.5 6.8-29.8 7.9-44 3.1-6.8-2.3-18.8-9.9-23.5-14.7-3.3-3.5-3.8-2.3 6.9-15.5l6.9-8.6 1.3 4.7c.7 2.6 1.2 5 1.3 5.3.1 2.2 10.2 11.5 14.5 13.5 9.6 4.5 22.3 2.5 33.8-5.3 6.6-4.4 20.4-18.8 30-31.2 10.2-13.2 10.3-13.8 2.9-21.4-11.1-11.4-26.7-20.4-40.2-23.3-11-2.3-26.1-1.5-36.5 2C129.1 34.3 116 45.4 94 73c-14.5 18.2-24.1 29.2-27.5 31.4L64 106V82.3l.1-23.8 8.8 9.2 8.8 9.2 4.2-5.1 4.1-5.1-5.7-6.1C61.4 36.6 43.1 26.8 18 25.3c-8.6-.5-9.7-.4-11.2 1.4zm38.7 19.1l5 2.7.3 33.7.2 33.8-5 2.5c-2.7 1.4-5.2 2.5-5.4 2.5-.3 0-.7-17.6-.8-39-.2-21.5-.1-39 .2-39 .3 0 2.8 1.3 5.5 2.8zM296 82.1v39l-5.2-2.8-5.3-2.8v-68l4.5-2.2c2.5-1.2 4.8-2.2 5.3-2.2.4-.1.7 17.5.7 39zM175.8 69c13 7.9 7.4 28-7.8 28-8.5 0-15-6.5-15-15s6.5-15 15-15c2.7 0 5.8.8 7.8 2z" fill="#fff"/></svg>